<svg width="18" height="18" viewBox="0 0 18 18" fill="none" xmlns="http://www.w3.org/2000/svg">
<path d="M3.98361 6.19672H0.295082V18H3.98361V6.19672ZM4.31557 2.13934C4.31752 1.86034 4.26449 1.58368 4.15951 1.32517C4.05453 1.06666 3.89966 0.831354 3.70374 0.632696C3.50783 0.434038 3.2747 0.275916 3.01767 0.167358C2.76064 0.0587992 2.48475 0.00193082 2.20574 0H2.13934C1.57195 1.19568e-08 1.0278 0.225395 0.6266 0.6266C0.225395 1.0278 0 1.57195 0 2.13934C0 2.70673 0.225395 3.25088 0.6266 3.65209C1.0278 4.05329 1.57195 4.27869 2.13934 4.27869C2.41837 4.28555 2.69602 4.23737 2.95641 4.1369C3.21681 4.03642 3.45486 3.88562 3.65696 3.69311C3.85906 3.50061 4.02125 3.27016 4.13425 3.01495C4.24726 2.75974 4.30887 2.48477 4.31557 2.20574V2.13934ZM18 10.8295C18 7.28115 15.7426 5.90164 13.5 5.90164C12.7657 5.86487 12.0346 6.02127 11.3797 6.35523C10.7247 6.68919 10.1687 7.18903 9.76721 7.80492H9.66393V6.19672H6.19672V18H9.88525V11.7221C9.83193 11.0792 10.0345 10.4411 10.4488 9.94664C10.8632 9.45215 11.456 9.14112 12.0984 9.08115H12.2385C13.4115 9.08115 14.282 9.81885 14.282 11.6779V18H17.9705L18 10.8295Z" fill="#F06453"/>
</svg>
