<svg width="18" height="15" viewBox="0 0 18 15" fill="none" xmlns="http://www.w3.org/2000/svg">
<path d="M16.1367 3.65625C16.8398 3.12891 17.4727 2.49609 18 1.72266C17.2969 2.03906 16.5938 2.25 15.8906 2.32031C16.6641 1.82812 17.2266 1.16016 17.5078 0.28125C16.7695 0.703125 15.9961 1.01953 15.1523 1.16016C14.8008 0.808594 14.3789 0.527344 13.9219 0.316406C13.4648 0.105469 12.9727 0 12.4453 0C11.7773 0 11.1797 0.175781 10.6172 0.492188C10.0547 0.84375 9.59766 1.30078 9.28125 1.86328C8.92969 2.42578 8.78906 3.05859 8.78906 3.69141C8.78906 3.97266 8.78906 4.25391 8.85938 4.53516C7.34766 4.46484 5.94141 4.11328 4.60547 3.41016C3.26953 2.74219 2.17969 1.82812 1.26562 0.667969C0.914062 1.26562 0.738281 1.89844 0.738281 2.53125C0.738281 3.16406 0.878906 3.76172 1.19531 4.28906C1.47656 4.85156 1.89844 5.27344 2.39062 5.625C1.79297 5.625 1.23047 5.44922 0.738281 5.13281V5.20312C0.738281 6.08203 1.01953 6.85547 1.58203 7.52344C2.14453 8.22656 2.84766 8.64844 3.69141 8.82422C3.33984 8.89453 3.02344 8.92969 2.70703 8.92969C2.49609 8.92969 2.25 8.92969 2.03906 8.89453C2.25 9.63281 2.67188 10.2305 3.30469 10.7227C3.9375 11.2148 4.64062 11.4258 5.48438 11.4258C4.11328 12.4805 2.56641 13.0078 0.878906 13.0078C0.527344 13.0078 0.246094 13.0078 0 12.9727C1.6875 14.0977 3.58594 14.625 5.66016 14.625C7.80469 14.625 9.70312 14.0977 11.3906 12.9727C12.9023 11.9883 14.0977 10.6875 14.9414 9C15.75 7.45312 16.1719 5.80078 16.1719 4.11328C16.1719 3.90234 16.1367 3.76172 16.1367 3.65625Z" fill="#F06453"/>
</svg>
