<svg width="18" height="18" viewBox="0 0 18 18" fill="none" xmlns="http://www.w3.org/2000/svg">
<path d="M9 4.37946C9.80357 4.37946 10.567 4.62054 11.2902 5.02232C12.0134 5.42411 12.5759 5.98661 12.9777 6.70982C13.3795 7.43304 13.6205 8.19643 13.6205 9C13.6205 9.84375 13.3795 10.6071 12.9777 11.3304C12.5759 12.0536 12.0134 12.6161 11.2902 13.0179C10.567 13.4196 9.80357 13.6205 9 13.6205C8.15625 13.6205 7.39286 13.4196 6.66964 13.0179C5.94643 12.6161 5.38393 12.0536 4.98214 11.3304C4.58036 10.6071 4.37946 9.84375 4.37946 9C4.37946 8.19643 4.58036 7.43304 4.98214 6.70982C5.38393 5.98661 5.94643 5.42411 6.66964 5.02232C7.39286 4.62054 8.15625 4.37946 9 4.37946ZM9 12.0134C9.80357 12.0134 10.5268 11.7321 11.1295 11.1295C11.692 10.567 12.0134 9.84375 12.0134 9C12.0134 8.19643 11.692 7.47321 11.1295 6.87054C10.5268 6.30804 9.80357 5.98661 9 5.98661C8.15625 5.98661 7.43304 6.30804 6.87054 6.87054C6.26786 7.47321 5.98661 8.19643 5.98661 9C5.98661 9.84375 6.26786 10.567 6.87054 11.1295C7.43304 11.7321 8.15625 12.0134 9 12.0134ZM14.9062 4.17857C14.9062 3.89732 14.7857 3.65625 14.5848 3.41518C14.3438 3.21429 14.1027 3.09375 13.8214 3.09375C13.5 3.09375 13.2589 3.21429 13.058 3.41518C12.817 3.65625 12.7366 3.89732 12.7366 4.17857C12.7366 4.5 12.817 4.74107 13.058 4.94196C13.2589 5.18304 13.5 5.26339 13.8214 5.26339C14.1027 5.26339 14.3438 5.18304 14.5446 4.94196C14.7455 4.74107 14.8661 4.5 14.9062 4.17857ZM17.9598 5.26339C17.9598 6.02679 18 7.27232 18 9C18 10.7679 17.9598 12.0134 17.9196 12.7768C17.8795 13.5402 17.7589 14.183 17.5982 14.7455C17.3571 15.4286 16.9554 16.0312 16.4732 16.5134C15.9911 16.9955 15.3884 17.3571 14.7455 17.5982C14.183 17.7991 13.5 17.9196 12.7366 17.9598C11.9732 18 10.7277 18 9 18C7.23214 18 5.98661 18 5.22321 17.9598C4.45982 17.9196 3.81696 17.7991 3.25446 17.558C2.57143 17.3571 1.96875 16.9955 1.48661 16.5134C1.00446 16.0312 0.642857 15.4286 0.401786 14.7455C0.200893 14.183 0.0803571 13.5402 0.0401786 12.7768C0 12.0134 0 10.7679 0 9C0 7.27232 0 6.02679 0.0401786 5.26339C0.0803571 4.5 0.200893 3.81696 0.401786 3.25446C0.642857 2.61161 1.00446 2.00893 1.48661 1.52679C1.96875 1.04464 2.57143 0.642857 3.25446 0.401786C3.81696 0.241071 4.45982 0.120536 5.22321 0.0803571C5.98661 0.0401786 7.23214 0 9 0C10.7277 0 11.9732 0.0401786 12.7366 0.0803571C13.5 0.120536 14.183 0.241071 14.7455 0.401786C15.3884 0.642857 15.9911 1.04464 16.4732 1.52679C16.9554 2.00893 17.3571 2.61161 17.5982 3.25446C17.7589 3.81696 17.8795 4.5 17.9598 5.26339ZM16.0312 14.3036C16.192 13.8616 16.2723 13.1384 16.3527 12.1339C16.3527 11.5714 16.3929 10.7277 16.3929 9.64286V8.35714C16.3929 7.27232 16.3527 6.42857 16.3527 5.86607C16.2723 4.86161 16.192 4.13839 16.0312 3.69643C15.7098 2.89286 15.1071 2.29018 14.3036 1.96875C13.8616 1.80804 13.1384 1.72768 12.1339 1.64732C11.5312 1.64732 10.6875 1.60714 9.64286 1.60714H8.35714C7.27232 1.60714 6.42857 1.64732 5.86607 1.64732C4.86161 1.72768 4.13839 1.80804 3.69643 1.96875C2.85268 2.29018 2.29018 2.89286 1.96875 3.69643C1.80804 4.13839 1.6875 4.86161 1.64732 5.86607C1.60714 6.46875 1.60714 7.3125 1.60714 8.35714V9.64286C1.60714 10.7277 1.60714 11.5714 1.64732 12.1339C1.6875 13.1384 1.80804 13.8616 1.96875 14.3036C2.29018 15.1473 2.89286 15.7098 3.69643 16.0312C4.13839 16.192 4.86161 16.3125 5.86607 16.3527C6.42857 16.3929 7.27232 16.3929 8.35714 16.3929H9.64286C10.7277 16.3929 11.5714 16.3929 12.1339 16.3527C13.1384 16.3125 13.8616 16.192 14.3036 16.0312C15.1071 15.7098 15.7098 15.1071 16.0312 14.3036Z" fill="#F06453"/>
</svg>
